# xmcd
#
# Track frame offsets:
# 150
# 15937
# 30345
# 45972
# 59872
# 73252
# 82645
# 99897
# 115322
# 129120
# 146545
# 161862
#
# Disc length: 2444 seconds
#
# Revision: 3
# Processed by: cddbd v1.5PL3 Copyright (c) Steve Scherf et al.
# Submitted via: inCDius 2.0b9
#
DISCID=8e098a0c
DTITLE=Various Artist - Screamin' and Hollerin' the Blues
DYEAR=2000
DGENRE=Blues
TTITLE0=Älvin Youngblood Hart - Screamin' and Hollerin' the Blues
TTITLE1=John Hammond - Malted Milk
TTITLE2=Duke Robillard - I'd Rater Drink Muddy Water
TTITLE3=Corey Harris - C.C. Pill Bues
TTITLE4=Anders Osborne - From 4 Till Late
TTITLE5=Toni Price - Junk Man
TTITLE6=Guy Davis - Motherless Children
TTITLE7=Paul Geremia - Tootie Blues
TTITLE8=Otis Taylor - Stone Pony
TTITLE9=Rishell and Raines - Bye Bye Blues
TTITLE10=Debbie Davies - That Lonesome Rave
TTITLE11=Eric Bibb - Goin' Down Slow
EXTD=YEAR: 2000
EXTT0=
EXTT1=
EXTT2=
EXTT3=
EXTT4=
EXTT5=
EXTT6=
EXTT7=
EXTT8=
EXTT9=
EXTT10=
EXTT11=
PLAYORDER=
